<svg width="44" height="44" viewBox="0 0 44 44" fill="none" xmlns="http://www.w3.org/2000/svg">
<path d="M0 13.0667C0 12.7838 0.111948 12.5125 0.311217 12.3124C0.510487 12.1124 0.780754 12 1.06256 12H4.25025C4.48727 12.0001 4.71746 12.0797 4.90422 12.2262C5.09098 12.3727 5.22358 12.5777 5.28094 12.8085L6.14161 16.2667H30.8143C30.9703 16.2668 31.1244 16.3014 31.2656 16.3681C31.4068 16.4348 31.5316 16.5318 31.6312 16.6524C31.7308 16.7729 31.8027 16.914 31.8419 17.0656C31.8811 17.2172 31.8865 17.3757 31.8578 17.5296L28.6701 34.5963C28.6245 34.8407 28.4953 35.0615 28.3047 35.2204C28.1142 35.3793 27.8744 35.4664 27.6266 35.4667H8.5005C8.25278 35.4664 8.01293 35.3793 7.8224 35.2204C7.63187 35.0615 7.50265 34.8407 7.45707 34.5963L4.2715 17.5616L3.42145 14.1333H1.06256C0.780754 14.1333 0.510487 14.021 0.311217 13.8209C0.111948 13.6209 0 13.3496 0 13.0667ZM6.59214 18.4L9.38243 33.3333H26.7447L29.535 18.4H6.59214ZM10.6256 35.4667C9.49839 35.4667 8.41732 35.9162 7.62025 36.7163C6.82317 37.5165 6.37538 38.6017 6.37538 39.7333C6.37538 40.8649 6.82317 41.9502 7.62025 42.7503C8.41732 43.5505 9.49839 44 10.6256 44C11.7529 44 12.8339 43.5505 13.631 42.7503C14.4281 41.9502 14.8759 40.8649 14.8759 39.7333C14.8759 38.6017 14.4281 37.5165 13.631 36.7163C12.8339 35.9162 11.7529 35.4667 10.6256 35.4667ZM25.5015 35.4667C24.3743 35.4667 23.2932 35.9162 22.4961 36.7163C21.6991 37.5165 21.2513 38.6017 21.2513 39.7333C21.2513 40.8649 21.6991 41.9502 22.4961 42.7503C23.2932 43.5505 24.3743 44 25.5015 44C26.6287 44 27.7098 43.5505 28.5069 42.7503C29.304 41.9502 29.7518 40.8649 29.7518 39.7333C29.7518 38.6017 29.304 37.5165 28.5069 36.7163C27.7098 35.9162 26.6287 35.4667 25.5015 35.4667ZM10.6256 37.6C11.1892 37.6 11.7298 37.8248 12.1283 38.2248C12.5269 38.6249 12.7508 39.1675 12.7508 39.7333C12.7508 40.2991 12.5269 40.8418 12.1283 41.2418C11.7298 41.6419 11.1892 41.8667 10.6256 41.8667C10.062 41.8667 9.52148 41.6419 9.12294 41.2418C8.7244 40.8418 8.5005 40.2991 8.5005 39.7333C8.5005 39.1675 8.7244 38.6249 9.12294 38.2248C9.52148 37.8248 10.062 37.6 10.6256 37.6ZM25.5015 37.6C26.0651 37.6 26.6057 37.8248 27.0042 38.2248C27.4027 38.6249 27.6266 39.1675 27.6266 39.7333C27.6266 40.2991 27.4027 40.8418 27.0042 41.2418C26.6057 41.6419 26.0651 41.8667 25.5015 41.8667C24.9379 41.8667 24.3974 41.6419 23.9988 41.2418C23.6003 40.8418 23.3764 40.2991 23.3764 39.7333C23.3764 39.1675 23.6003 38.6249 23.9988 38.2248C24.3974 37.8248 24.9379 37.6 25.5015 37.6Z" fill="#262121"/>
<ellipse cx="32.0466" cy="12" rx="11.9535" ry="12" fill="white"/>
<path d="M43.5001 12C43.5001 18.3531 38.3703 23.5 32.0466 23.5C25.7229 23.5 20.5931 18.3531 20.5931 12C20.5931 5.64689 25.7229 0.5 32.0466 0.5C38.3703 0.5 43.5001 5.64689 43.5001 12Z" stroke="#262121" stroke-opacity="0.5"/>
<path d="M33.7776 6.27734V17H32.4227V7.96924L29.6907 8.96533V7.74219L33.5652 6.27734H33.7776Z" fill="url(#paint0_linear_90_320)"/>
<defs>
<linearGradient id="paint0_linear_90_320" x1="36.2175" y1="12.2" x2="36.0176" y2="13.7299" gradientUnits="userSpaceOnUse">
<stop stop-color="#EE00F2"/>
<stop offset="1" stop-color="#E60B13"/>
</linearGradient>
</defs>
</svg>
